<svg xmlns="http://www.w3.org/2000/svg" viewBox="0 0 598.26 542.69"><defs><style>.cls-1{fill:#fff;}</style></defs><g id="Camada_2" data-name="Camada 2"><g id="Camada_1-2" data-name="Camada 1"><g id="PC"><path class="cls-1" d="M351.11,394c1.34.52,2.66,1.12,4,1.56,19.94,6.44,26.37,23.67,33.09,40.89,2.87,7.34,1.21,12.95-5.16,16.68-34.42,20.15-69,40-103.47,60.07-4.53,2.65-8.3.89-12.1-1.23-23.51-13.15-47.1-26.15-70.44-39.58Q106,420,15.08,367.23C-4.24,356-5.07,343.31,13,329.33c27.86-21.54,56.05-42.66,84.15-63.87,9.67-7.3,19.87-7.43,30.23-1.49q17.29,9.93,34.51,20c4.25,2.48,6.45,3.3,9.51-2.77,4.87-9.66,14.49-15.75,22.75-22.61,6.06-5,5.36-7.87-1.26-11.54C175.32,237.27,158,227,140.57,217c-9.23-5.29-12.54-12.94-11-23.5,7.85-52.54,15.62-105.08,23-157.68,1.47-10.57,6-15.7,16.76-17.32,37.28-5.6,74.48-11.72,111.63-18a26.12,26.12,0,0,1,18.47,3.44Q428.17,78.36,557.05,152.62c15.19,8.73,22.31,20,21.86,38.36-1.09,44.17-.21,88.39-.48,132.59,0,7.82,2,13.15,8.56,18.16,16.18,12.32,14.68,28.49-2.82,38.88-9.19,5.46-19.26,7.66-29.9,7.68-8.7,0-17.37.83-24.95,5.46-8.56,5.22-8.93,12.67-1.42,19.21,13.74,12,13.21,19.36-2.46,28.5Q484,465.64,442.35,489.4c-5.23,3-8.74,5.4-5.53,12.42,3,6.47-.06,11.8-6.17,15.32-13.39,7.72-26.74,15.5-40.11,23.23-3.55,2-7.23,3.42-11.19,1.13-8.71-5-17.66-9.71-26-15.29-6.43-4.3-6.49-18.77.72-25,10.52-9.14,21.76-17.53,34.35-23.94,10-5.11,18.26-1.09,25.92,4.59,8.6,6.39,15.76,6.21,25.22.37,26.88-16.61,54.61-31.85,81.93-47.76,10.13-5.9,10.17-7.67,1.28-15.14-12.87-10.8-12.08-23.4,2.15-32.44,6.53-4.15,13.8-5.6,21.53-5.94,12.21-.56,24.51-1.46,35.29-8.16,9.36-5.81,11-13.28,5-20.49-3.69-4.44-6.2-4.91-12.1-1.3-28.48,17.45-56.24,37.52-87.08,49.17-22,8.29-41,20.55-61.61,30.41-6.62,3.16-28-7.76-29.26-14.8-.8-4.48,1.66-7.53,4.66-10.28,8.73-8,17.35-16.17,26.3-23.95,5.34-4.64,4.24-8-1.69-9.94-9.87-3.24-19.92-5.76-29.75.52A217.22,217.22,0,0,1,351.11,394ZM422.2,166.7c7.22,8,10.8,15.13,9.44,24.08q-5.88,38.82-11.48,77.67c-4.08,28.39-8,56.81-12,85.21-1.24,8.69,1.84,11.86,10.76,10.11,17.94-3.54,36-6.27,54-9.9,8.77-1.77,12.19,1.85,12.41,9.89.22,7.53.51,15.09.09,22.6-.49,8.74,1.26,11.12,9.79,6Q528.83,372,563.2,353c7.5-4.18,10.43-9.25,10.36-18-.38-50.26-.15-100.52-.21-150.78,0-16.89-23.09-38-39.84-35.45C497,154.25,460.62,160.47,422.2,166.7ZM183.69,27.5c1.78,2.28,2.1,3,2.65,3.34q111.48,64.47,223,128.94c5.29,3.07,10.53,3.58,16.52,2.54,20.86-3.62,41.81-6.74,62.71-10.2,13.83-2.3,27.61-4.87,43.72-7.73-4-2.69-5.73-4-7.53-5-68.41-39.56-137-78.76-205.1-118.9-14.43-8.5-28-13.28-44.45-8-5.72,1.85-12,1.82-18.06,2.81C233.1,19.27,209.1,23.28,183.69,27.5Zm-17.14,152c-.3,15.78-.26,16.58,7.72,22.07a789.94,789.94,0,0,0,107.24,61.71c6.65,3.18,8.55,1.46,9.49-5.55q7.65-57,16.18-113.94c1-6.37-1.71-9.13-6.46-11.89-35.71-20.7-71.44-41.38-107-62.44-7.39-4.38-10.16-3.26-12.31,5.1C172.45,109.52,169,145.17,166.55,179.53Zm-11.48-36.35c.06-2.17.65-8.06-4.66-8.41-5.83-.38-4.45,6.07-5,9.84-2.63,17.39-4.35,34.94-7.64,52.19-1.72,9,.7,13.76,8.49,18.23Q265,283.22,383.27,352.1c7.71,4.49,9.9,2.33,11-5.26,2.74-19.55,5.66-39.08,8.55-58.6.75-5-.17-9-5.11-11.8Q352.74,250.79,308,224.79c-5.15-3-7.29-2.69-8,3.85-1.78,15.32-4.06,30.6-6.38,45.85-1.58,10.36-4.41,11.81-13.47,6.54-41.94-24.39-83.75-49-125.66-73.42-5.3-3.08-7.49-6.82-6.47-13.22C150.59,178.09,152.56,161.68,155.07,143.18ZM111.73,270.07c-4.72-.25-8.12,2.53-11.56,5.13Q83.4,287.88,66.7,300.64c-16,12.18-32.2,24.15-48,36.59-13.18,10.37-12.29,20,1.94,28.07Q48.24,381.07,75.76,397q88.69,51.18,177.3,102.51c6.51,3.79,10.25,4.2,12-4.23,1.39-6.69,6-11.1,11.37-15.12,25.58-19.2,51-38.59,76.48-57.93,10.16-7.71,10.12-9-.68-15.25Q237.41,340.65,122.58,274.39C119.17,272.42,115.94,270,111.73,270.07Zm84.66,32.38c4.37,4.75,7.72,4.14,11,2,5.15-3.37,9.93-2.65,15.07.33q51.18,29.72,102.48,59.2c4.57,2.64,8.12,5.88,6.82,12-1.34,6.36,3.22,7,7.77,7.41,19.1,1.77,34.79-7.2,50.21-16.44,6.06-3.62.47-5.64-2.28-7.24q-69.33-40.23-138.74-80.33c-3.15-1.83-6.1-3.55-10-1.3C224.9,286.21,210.93,294.12,196.39,302.45ZM384.86,441.64a88.66,88.66,0,0,1-3.61-9.41c-2.52-9.33-5.92-11.13-14.4-4.42-24.73,19.59-50.18,38.27-75.32,57.34-5.14,3.9-10.38,7.78-12.94,14-.94,2.31-2.35,5.11-.4,7.12,2.32,2.39,4.64-.31,6.59-1.43q47.07-27.11,94-54.4C381.94,448.66,384.94,446.62,384.86,441.64ZM151.73,195.23c-.89,5.87,3.29,8.35,7.37,10.74q60,35.1,120.08,70.07c2.45,1.43,5.89,5.36,8.18,1.25,2.21-4-2.66-4.94-5.29-6.47-1.55-.89-3.19-1.65-4.79-2.46a956.23,956.23,0,0,1-108.57-63.93c-6.23-4.25-9.76-9-9-16.86,1.18-11.78,1.92-23.61,2.9-35.41a496.8,496.8,0,0,1,14.13-83.8c.94-3.6,3.14-8.8-2.82-9.52-4.81-.58-3.2,4.83-3.62,7.48-3.48,22-6.66,44-9.82,66C157.5,153.29,154.65,174.27,151.73,195.23ZM162.66,41.39l-2.22,3.71L414.06,192.4l2.46-4.23ZM411,180.49c.65-1.14,1.3-2.27,2-3.4L163.47,33l-2,3.42Zm9.19,240.76c1.55-.82,3-1.24,4-2.15q16.72-15.24,33.3-30.62c1.32-1.23,2.24-2.66,1.14-4.71-3.19-6-16.31-8.91-21.51-4.41-10.31,8.93-20.41,18.11-30.53,27.25-1.81,1.63-4.5,3.89-1.37,6.07C409.83,415.93,415.05,418.39,420.15,421.25Zm-12.59,84.9c-8.92-5.38-16.95-10-24.74-15-2.84-1.83-5.1-2.26-7.71,0-5.4,4.58-15.25,6.79-15.81,13.21-.48,5.48,9.67,6.86,14.74,10.62,2,1.48,4.39,2.42,6.57,3.67,3.39,2,6.63,2.27,10-.25C396,514.31,401.53,510.47,407.56,506.15ZM409.3,168.2l1.18-2.5L178,31.52l-1.31,2.27ZM222.18,266.09c-.71-1.08-1.19-2-1.83-2.76-6.51-7.95-15.84-8.45-23.58-1.31-3.16,2.91-6.3,5.83-9.54,8.64-10.88,9.39-10.11,13.08,3.36,18.12a8.73,8.73,0,0,0,9.81-1.92c6.33-5.78,12.57-11.68,18.82-17.55C220.23,268.35,221.12,267.25,222.18,266.09ZM432.37,503.64c-.82-3.37-2.72-4.68-6.3-3.86a30.5,30.5,0,0,0-13.95,7.77c-15.59,14.57-31.62,22.09-50.22,4.72-1.6-1.49-4.52-3.61-6.52-.66-1.88,2.77-.5,5.81,2.16,7.42q12,7.2,24.23,13.85c2.81,1.52,5.64,0,8.14-1.43q18.68-10.66,37.25-21.48C429.6,508.55,432.24,507.09,432.37,503.64Zm-3.7-80c13.83-8,27.71-15.94,41.44-24.11,1.66-1,3.6-3.19,3.67-4.91.44-10.35.41-20.72.42-31.09,0-1.84-.82-3.58-3.06-3.64a3.68,3.68,0,0,0-3.91,3,34.42,34.42,0,0,0-.7,9.57c1.06,9.05-2.43,15.6-9.2,21.51C447.14,402.87,436.44,411.29,428.67,423.61Zm-156.4,83.74c-.1-12,8.12-18.17,16.17-24.3q38.91-29.66,78-59.13c6.09-4.59,10-9.85,1.81-15.09-14.66-9.34-30-17.7-45-26.47,10.2,8.43,21.54,14.91,32.81,21.5,13.32,7.78,13.76,13.77,1.52,23.06Q319,456.19,280.32,485.21C272.86,490.81,269,497.64,272.27,507.35Zm39.49-349.89-2.4,4.17,100.79,58.14q1.19-2,2.36-4.08Zm91.56,108.15c.79-1.35,1.58-2.71,2.38-4.06L305,203.17l-2.38,4.07Zm-99.49-53.15c2.65,8.6,89.68,60.06,101.34,58.56ZM405.2,256.84l2.64-4L306.34,194l-2.41,4ZM313.07,148.19l-2.4,4.11,100.82,58.25q1.18-2,2.36-4.06ZM413,201.5c.84-1.37,1.67-2.74,2.51-4.1L314.42,139.18l-2.34,4Zm-103.9-25.7c4.17,9.57,91.55,59.88,102.7,59.31Zm-.63,9.56-2.33,4.2,100.06,57.61,2.28-4Q358.44,214.27,308.44,185.36Zm101,43.9,2.34-4.07-100.53-58-2.3,4Zm9.63-56.81c2.52,5.33,6.29,9.88,5.27,16.71-6,40.1-11.62,80.26-17.36,120.4q-3.33,23.19-6.63,46.38c10.12-54.39,18.17-109,26-163.68C427.43,184.77,427.54,177.08,419.09,172.45ZM121,265.63l-1.16,1.88,154.58,89.24c.38-.66.76-1.32,1.13-2Z"/><path class="cls-1" d="M488.22,214.14c-16.34-2.34-29,4.19-42.27,6.23-12.11,1.86-11.11,1.76-11.08-10.23.05-12.57,6.29-16.6,17.18-18.15,21.28-3,42.37-7.13,63.93-8.51,10.32-.66,20.43-4.44,30.64-6.79,6.39-1.46,8.79.82,7.18,7.37a49.8,49.8,0,0,0-1.26,9.59c-.32,6.77-3.24,9.72-10.44,10.78C523.3,207.2,504.67,211.11,488.22,214.14Z"/><path class="cls-1" d="M389,299.26c-.19,7.21-3.29,11.72-10.37,6.23-13-10.06-26.85-18.61-40.74-27.23-2.54-1.57-4.31-4.15-2.69-7.28,1.9-3.66,4.84-2.11,7.36-.73,12.08,6.6,23.52,14.35,37.37,17.46C384.92,288.82,390.19,292,389,299.26Z"/><path class="cls-1" d="M115,275.75c2.15,1,5.45,2.42,8.53,4.19Q231.73,342.42,339.83,405c11,6.39,11.08,10.07.84,17.87C318.1,440,295.38,457,273,474.41c-6.78,5.27-12.32,6.14-20.27,1.55C180.6,434.34,108.2,393.19,35.91,351.84c-12.33-7-12.48-10.43-1.19-19q34.72-26.4,69.48-52.75C107.06,277.91,109.8,275.51,115,275.75ZM340.78,411.4c-2.4-1.62-5.21-3.76-8.23-5.51Q227.67,345.31,122.83,284.66c-6.88-4-12.08-4-18.46.92C82.82,302.3,61.13,318.85,39,334.86c-7.86,5.7-7.39,8.52.74,13.1,36,20.24,71.72,40.87,107.54,61.37q52.34,30,104.64,59.93c5.13,2.94,9.81,5.37,15.71.82,23-17.75,46.3-35.17,69.46-52.73C338.81,416.07,340.8,415,340.78,411.4Z"/><path class="cls-1" d="M251.67,372.23c-.07,2.89-2.64,4.43-4.88,6.19l-32.25,25.21c-.85.66-2.15,2-2.58,1.75-12.43-6.67-26.65,3.7-38.07-2.53-33.4-18.24-66-37.92-98.89-57.11-11.65-6.8-12.78-21.46-2.11-30.26C83.4,306.81,94.37,298.7,105,290.14c3.88-3.14,7.19-3.52,11.65-.93Q179.91,326,243.38,362.53C247.13,364.7,251,366.8,251.67,372.23Zm-90.5,7.86a15.56,15.56,0,0,0-2.63-2.7c-3.31-2.11-6.72-4.06-10.12-6q-22.21-13-44.46-25.87c-2.12-1.22-4.61-2.87-6.69-.16-1.4,1.83,0,3.55,1.58,4.44q28.22,16.47,56.58,32.69C157.3,383.52,159.67,383,161.17,380.09Z"/><path class="cls-1" d="M263.27,454.34a35,35,0,0,1-4.32-1.86c-9.93-5.69-19.8-11.51-29.74-17.19-6.87-3.92-7.23-8.65-1.32-13.43,15-12.14,30.21-24,45.35-36a7.44,7.44,0,0,1,9-.64c10.53,6.05,21.2,11.86,31.57,18.17,6.18,3.77,7.36,8.53.88,13.55q-22.08,17.08-44.07,34.28C268.63,452.79,266.65,454.35,263.27,454.34Z"/></g></g></g></svg>